<svg width="70" height="70" fill="none" xmlns="http://www.w3.org/2000/svg"><g clip-path="url(#a)"><path d="M68.46 33.47a33.48 33.48 0 1 0-66.96.02 33.48 33.48 0 0 0 23.3 31.88 1.47 1.47 0 0 0 1.16-.14c.3-.18.51-.45.62-.78l8.45-26.8a4.18 4.18 0 1 0-1.84-7.95L22.03 18.53a1.4 1.4 0 0 0-1.98 1.97l11.17 11.18a4.1 4.1 0 0 0 1.17 5.05l-8.06 25.54a30.72 30.72 0 1 1 39.45-18.21A30.72 30.72 0 0 1 47.45 61.5l-.87-4.1a1.4 1.4 0 0 0-2.29-.75l-8.4 7.5a1.4 1.4 0 0 0 .51 2.36l10.72 3.42a1.4 1.4 0 0 0 1.79-1.62l-.85-4.02a33.37 33.37 0 0 0 20.4-30.82Zm-33.48-1.4a1.4 1.4 0 1 1 0 2.8 1.4 1.4 0 0 1 0-2.8Zm4.6 32.52 4.77-4.26 1.32 6.21-6.1-1.95Z" fill="#212121"/><path d="M33.59 6.97v2.79a1.4 1.4 0 1 0 2.79 0v-2.8a1.4 1.4 0 0 0-2.8 0ZM8.48 32.07a1.4 1.4 0 0 0 0 2.8h2.79a1.4 1.4 0 1 0 0-2.8h-2.8Zm53 2.8a1.4 1.4 0 1 0 0-2.8H58.7a1.4 1.4 0 0 0 0 2.8h2.79Z" fill="#2196F3"/></g><defs><clipPath id="a"><path fill="#fff" d="M0 0h70v70H0z"/></clipPath></defs></svg>