<svg width="44" height="44" fill="none" xmlns="http://www.w3.org/2000/svg"><path d="M44 22a21.93 21.93 0 0 1-6.44 15.56A21.93 21.93 0 0 1 22 44a21.93 21.93 0 0 1-15.56-6.44A21.93 21.93 0 0 1 0 22 21.93 21.93 0 0 1 6.44 6.44 21.93 21.93 0 0 1 22 0a21.93 21.93 0 0 1 15.56 6.44A21.93 21.93 0 0 1 44 22Z" fill="#fff"/><g clip-path="url(#a)"><path d="M25.33 15.32h1.83v-3.18A23.59 23.59 0 0 0 24.5 12c-2.64 0-4.44 1.66-4.44 4.7v2.8h-2.9v3.56h2.9V32h3.56v-8.94h2.79l.44-3.56h-3.23v-2.45c0-1.03.28-1.73 1.71-1.73Z" fill="#AFB1B8"/></g><defs><clipPath id="a"><path fill="#fff" transform="translate(12 12)" d="M0 0h20v20H0z"/></clipPath></defs></svg>