<svg width="44" height="44" fill="none" xmlns="http://www.w3.org/2000/svg"><path d="M44 22a21.93 21.93 0 0 1-6.44 15.56A21.93 21.93 0 0 1 22 44a21.93 21.93 0 0 1-15.56-6.44A21.93 21.93 0 0 1 0 22 21.93 21.93 0 0 1 6.44 6.44 21.93 21.93 0 0 1 22 0a21.93 21.93 0 0 1 15.56 6.44A21.93 21.93 0 0 1 44 22Z" fill="#fff"/><g clip-path="url(#a)" fill="#AFB1B8"><path d="M31.98 17.88a7.29 7.29 0 0 0-.46-2.43 4.88 4.88 0 0 0-1.16-1.77 4.92 4.92 0 0 0-1.77-1.15 7.31 7.31 0 0 0-2.43-.47 67.91 67.91 0 0 0-4.12-.06c-2.72 0-3.06.01-4.12.06-1.07.04-1.8.22-2.43.46a4.88 4.88 0 0 0-1.77 1.16 4.92 4.92 0 0 0-1.16 1.77 7.3 7.3 0 0 0-.46 2.43 67.91 67.91 0 0 0-.06 4.12c0 2.72 0 3.06.05 4.12.05 1.07.22 1.8.47 2.43a4.93 4.93 0 0 0 1.16 1.77c.5.51 1.1.9 1.77 1.16.63.24 1.36.41 2.42.46 1.07.05 1.4.06 4.12.06s3.06-.01 4.13-.06a7.29 7.29 0 0 0 2.42-.46 5.12 5.12 0 0 0 2.93-2.93c.24-.64.42-1.36.46-2.43.05-1.06.06-1.4.06-4.12s0-3.05-.05-4.12Zm-1.8 8.17c-.04.97-.2 1.5-.34 1.85a3.32 3.32 0 0 1-1.9 1.9c-.35.14-.89.3-1.86.34-1.05.05-1.37.06-4.04.06s-2.99 0-4.04-.06c-.98-.04-1.5-.2-1.85-.34a3.08 3.08 0 0 1-1.15-.75 3.1 3.1 0 0 1-.75-1.14c-.14-.36-.3-.89-.34-1.86a70.24 70.24 0 0 1-.06-4.04c0-2.67.01-2.99.06-4.04.04-.98.2-1.5.34-1.86a3.04 3.04 0 0 1 .75-1.15 3.1 3.1 0 0 1 1.15-.74c.35-.14.88-.3 1.85-.35 1.06-.04 1.38-.05 4.04-.05 2.68 0 3 0 4.04.05.98.05 1.5.21 1.86.35.43.16.83.41 1.15.74.33.33.58.72.75 1.15.13.35.3.89.34 1.86.05 1.05.06 1.37.06 4.04s-.01 2.98-.06 4.04Z"/><path d="M22.04 16.86A5.14 5.14 0 1 0 27.17 22a5.14 5.14 0 0 0-5.13-5.14Zm0 8.47a3.33 3.33 0 1 1 0-6.66 3.33 3.33 0 0 1 0 6.67Zm6.54-8.67a1.2 1.2 0 1 1-2.4 0 1.2 1.2 0 0 1 2.4 0Z"/></g><defs><clipPath id="a"><path fill="#fff" transform="translate(12 12)" d="M0 0h20v20H0z"/></clipPath></defs></svg>