<svg aria-hidden="true" style="position: absolute; width: 0; height: 0; overflow: hidden;" version="1.1" xmlns="http://www.w3.org/2000/svg" xmlns:xlink="http://www.w3.org/1999/xlink">
<defs>
<symbol id="icon-antenna" viewBox="0 0 32 32">
<path fill="#212121" style="fill: var(--color1, #212121)" d="M30.775 22.098l-8.443-8.503 0.937-4.617c0.225 0.091 0.485 0.144 0.758 0.146h0.005c0.006 0 0.014 0 0.022 0 1.192 0 2.158-0.966 2.158-2.158s-0.966-2.158-2.158-2.158c-1.192 0-2.158 0.966-2.158 2.158 0 0.259 0.046 0.507 0.129 0.737l-0.005-0.015-4.955 0.603-8.091-8.133c-0.097-0.098-0.231-0.159-0.379-0.16h-0c-0.137 0-0.274 0.055-0.37 0.155l-1.513 1.504c-0.096 0.097-0.156 0.23-0.156 0.377s0.059 0.28 0.156 0.377l-0-0 0.814 0.823c-1.143 2.062-1.816 4.522-1.816 7.14 0 4.106 1.656 7.824 4.336 10.525l-0.001-0.001c0.046 0.046 0.091 0.073 0.146 0.101-0.032 0.165-0.050 0.354-0.050 0.548v6.186h-6.4c0 0 0 0 0 0-1.473 0-2.667 1.193-2.67 2.665v1.065c0 0.297 0.242 0.535 0.535 0.535h24.535c0.293 0 0.53-0.238 0.53-0.535v-1.065c-0.003-1.471-1.194-2.663-2.665-2.665h-6.4v-2.743c1.006 0.21 2.025 0.32 3.049 0.32 2.58-0.003 5.005-0.663 7.117-1.822l-0.077 0.039 0.818 0.823c0.096 0.101 0.233 0.155 0.375 0.16 0.137 0 0.274-0.059 0.375-0.155l1.509-1.509c0.095-0.096 0.153-0.229 0.153-0.375s-0.059-0.278-0.153-0.375l0 0zM23.278 6.235c0.193-0.192 0.458-0.311 0.752-0.311 0.588 0 1.065 0.477 1.065 1.065s-0.476 1.064-1.063 1.065h-0c-0.001 0-0.001 0-0.002 0-0.588 0-1.065-0.477-1.065-1.065 0-0.297 0.122-0.566 0.318-0.759l0-0zM22.025 9.737l-0.599 2.944-1.175-1.179 1.774-1.765zM21.417 8.837l-1.92 1.906-1.486-1.49 3.406-0.416zM24.005 28.8c0.884 0 1.6 0.716 1.6 1.6v0 0.535h-23.465v-0.535c0-0.884 0.716-1.6 1.6-1.6v0h20.261zM16.539 26.665v1.070h-5.339v-1.070h5.335zM11.2 25.6v-4.055c0-1.294 1.198-2.345 2.665-2.345 1.472 0 2.67 1.051 2.67 2.345v4.055h-5.335zM17.6 23.904v-2.359c0-1.879-1.673-3.41-3.735-3.41-0.018-0-0.040-0-0.062-0-1.351 0-2.537 0.705-3.211 1.768l-0.009 0.016c-2.359-2.481-3.809-5.845-3.809-9.548 0-2.314 0.567-4.496 1.569-6.415l-0.036 0.077 18.606 18.706c-1.825 0.95-3.986 1.508-6.277 1.508-1.076 0-2.123-0.123-3.128-0.356l0.093 0.018zM28.891 23.218l-0.754-0.754-20.302-20.425 0.754-0.75 21.061 21.179-0.759 0.75z"></path>
<path fill="#2196f3" style="fill: var(--color2, #2196f3)" d="M13.874 20.265c-0.001 0-0.003 0-0.005 0-0.884 0-1.6 0.716-1.6 1.6 0 0.882 0.714 1.597 1.595 1.6h0.005c0.001 0 0.001 0 0.002 0 0.884 0 1.6-0.716 1.6-1.6s-0.715-1.599-1.598-1.6h-0zM14.249 22.245c-0.097 0.096-0.23 0.155-0.377 0.155-0.295 0-0.535-0.239-0.535-0.535s0.238-0.533 0.532-0.535h0c0.294 0.001 0.533 0.24 0.533 0.535 0 0.148-0.060 0.283-0.158 0.379l-0 0z"></path>
</symbol>
<symbol id="icon-astronaut" viewBox="0 0 32 32">
<path fill="#2196f3" style="fill: var(--color2, #2196f3)" d="M31.973 4.526c-0.063-0.192-0.226-0.334-0.427-0.365l-0.003-0-1.911-0.274-0.855-1.737c-0.178-0.361-0.777-0.361-0.955 0l-0.85 1.737-1.911 0.274c-0.262 0.038-0.46 0.261-0.46 0.53 0 0.151 0.063 0.287 0.163 0.385l0 0 1.385 1.344-0.325 1.902c-0.005 0.026-0.007 0.056-0.007 0.087 0 0.295 0.239 0.535 0.535 0.535 0.089 0 0.174-0.022 0.248-0.061l-0.003 0.001 1.71-0.896 1.705 0.896c0.072 0.039 0.158 0.062 0.25 0.062 0.295 0 0.535-0.239 0.535-0.535 0-0.032-0.003-0.063-0.008-0.093l0 0.003-0.329-1.902 1.385-1.349c0.101-0.097 0.163-0.234 0.163-0.384 0-0.059-0.009-0.115-0.027-0.168l0.001 0.004zM29.513 5.851c-0.128 0.123-0.183 0.302-0.155 0.471l0.192 1.115-1.001-0.526c-0.072-0.039-0.158-0.062-0.249-0.062s-0.177 0.023-0.252 0.063l0.003-0.001-1.001 0.526 0.192-1.115c0.005-0.027 0.008-0.059 0.008-0.091 0-0.149-0.061-0.283-0.159-0.38l-0-0-0.814-0.791 1.12-0.16c0.174-0.027 0.325-0.137 0.402-0.293l0.503-1.015 0.498 1.015c0.078 0.155 0.229 0.265 0.402 0.293l1.12 0.16-0.809 0.791zM26.13 20.526h-1.065v1.065h1.070v-1.070zM26.13 22.656h-1.065v1.065h1.070v-1.065zM27.2 21.591h-1.065v1.065h1.065v-1.065zM25.065 21.591h-1.065v1.065h1.065v-1.065zM22.4 26.391h-1.065v1.065h1.065v-1.065zM22.4 28.521h-1.065v1.070h1.065v-1.070zM23.465 27.456h-1.065v1.065h1.065v-1.065zM21.335 27.456h-1.070v1.065h1.070v-1.065zM16 24.256h-1.065v1.065h1.065v-1.065zM16 26.391h-1.065v1.065h1.065v-1.065zM17.065 25.321h-1.065v1.070h1.065v-1.070zM14.935 25.321h-1.070v1.070h1.070v-1.070zM5.865 6.121h-1.065v1.070h1.065v-1.070zM5.865 8.256h-1.065v1.065h1.065v-1.065zM6.935 7.191h-1.070v1.065h1.070v-1.065zM4.8 7.191h-1.065v1.065h1.065v-1.065z"></path>
<path fill="#212121" style="fill: var(--color1, #212121)" d="M24.713 14.158c-0.28-0.376-0.699-0.636-1.179-0.703l-0.009-0.001c-0.076-0.012-0.164-0.018-0.253-0.018-0.411 0-0.789 0.139-1.090 0.373l0.004-0.003-1.253 0.96-1.897 1.417-1.358-0.539c2.423-1.088 4.114-3.511 4.114-6.322 0-3.822-3.122-6.93-6.962-6.93s-6.958 3.109-6.958 6.93c0 1.385 0.411 2.674 1.115 3.762l-2.766-0.027-0.023 0.005c-0.057 0.003-0.11 0.014-0.159 0.033l-0.038 0.013-0.018 0.005-3.232 1.6-1.893 0.91c-0.025 0.011-0.046 0.024-0.065 0.037l0.001-0.001c-0.482 0.324-0.794 0.867-0.794 1.484 0 0.296 0.072 0.575 0.2 0.821l-0.005-0.010c0.22 0.423 0.593 0.741 1.043 0.883l0.013 0.003c0.161 0.053 0.346 0.083 0.539 0.083 0.308 0 0.598-0.078 0.851-0.216l-0.009 0.005 1.385-0.736 2.263-1.17 1.358-0.009-6.779 6.757c-0.304 0.298-0.492 0.712-0.494 1.17v0c0.003 0.92 0.749 1.664 1.669 1.664 0.002 0 0.003 0 0.005 0h-0c0.425 0 0.85-0.16 1.179-0.485l1.307-1.307 1.742-1.298 0.901 0.896-1.76 1.755-1.339 1.33c-0.305 0.299-0.494 0.715-0.494 1.175 0 0.001 0 0.003 0 0.004v-0c0 0.443 0.174 0.864 0.494 1.179 0.302 0.299 0.717 0.485 1.176 0.485 0.001 0 0.003 0 0.004 0h-0c0.425 0 0.855-0.16 1.179-0.485l3.483-3.47 1.015-1.006h-0.005l0.018-0.018 5.166-5.655 3.547 0.498c0.064 0 0.128-0.018 0.187-0.041l0.050-0.023c0.018-0.009 0.041-0.014 0.059-0.027l3.214-2.13 0.027-0.032 0.041-0.027 1.271-1.189c0.347-0.326 0.562-0.788 0.562-1.3 0-0.401-0.132-0.771-0.355-1.068l0.003 0.005zM2.13 17.769c-0.099 0.055-0.217 0.088-0.343 0.088-0.077 0-0.151-0.012-0.22-0.035l0.005 0.001c-0.297-0.090-0.51-0.362-0.51-0.684 0-0.237 0.116-0.447 0.293-0.577l0.002-0.001 1.317-0.631 0.315 0.923 0.133 0.389-0.992 0.526zM5.627 15.941l-1.55 0.8-0.256-0.741-0.183-0.535 2.030-1.006-0.041 1.486zM20.727 9.326c0 0.919-0.219 1.783-0.599 2.56l-4.183-1.897c-0.042-0.576-0.341-1.074-0.78-1.386l-0.006-0.004 1.463-4.859c2.377 0.754 4.105 2.971 4.105 5.586zM8.937 9.326c0.011-3.243 2.643-5.868 5.888-5.868 0.266 0 0.528 0.018 0.784 0.052l-0.030-0.003-1.435 4.754-0.055-0.005c0 0 0 0-0 0-1.032 0-1.869 0.834-1.874 1.865v0.001c0.005 1.031 0.842 1.865 1.874 1.865 0 0 0 0 0 0v0c0.695 0 1.294-0.379 1.618-0.942l3.858 1.755c-1.085 1.458-2.804 2.393-4.741 2.393-3.245 0-5.878-2.624-5.893-5.866v-0.001zM14.894 10.126c0 0.443-0.361 0.8-0.805 0.8 0 0 0 0 0 0-0.443 0-0.802-0.358-0.805-0.8v-0c0-0.446 0.361-0.807 0.807-0.807s0.807 0.361 0.807 0.807v0zM2.469 25.147c-0.11 0.109-0.261 0.176-0.427 0.176s-0.318-0.067-0.427-0.176l0 0c-0.109-0.108-0.177-0.257-0.177-0.423s0.068-0.315 0.177-0.423l0.96-0.96 0.855 0.85-0.96 0.955zM5.682 28.878c-0.11 0.109-0.261 0.176-0.427 0.176s-0.318-0.067-0.428-0.176l0 0c-0.108-0.108-0.174-0.256-0.174-0.421s0.067-0.313 0.174-0.421v0l0.96-0.96 0.855 0.846-0.96 0.96zM9.166 25.413l-1.769 1.76-0.85-0.85 1.765-1.751c0.041-0.046 0.064-0.091 0.091-0.137l0.023-0.046c0.018-0.037 0.023-0.082 0.027-0.123 0-0.027 0.014-0.046 0.014-0.073 0-0.037-0.014-0.073-0.018-0.105l-0.018-0.096c-0.025-0.053-0.055-0.098-0.092-0.138l0 0-0.027-0.041-1.609-1.6c-0.014-0.018-0.037-0.023-0.055-0.037-0.027-0.022-0.057-0.042-0.089-0.058l-0.003-0.001c-0.026-0.012-0.056-0.023-0.088-0.031l-0.003-0.001c-0.029-0.009-0.063-0.015-0.099-0.018l-0.002-0c-0.014-0.001-0.031-0.002-0.048-0.002s-0.034 0.001-0.050 0.002l0.002-0-0.105 0.023c-0.032 0.009-0.064 0.027-0.091 0.046-0.023 0.009-0.046 0.014-0.064 0.027l-1.774 1.326-0.901-0.901 2.4-2.386 4.361 4.293-0.928 0.914zM15.982 18.395h-0.046c-0.005-0-0.010-0-0.015-0-0.035 0-0.069 0.003-0.102 0.010l0.003-0.001c-0.069 0.011-0.13 0.035-0.185 0.070l0.002-0.001c-0.032 0.018-0.059 0.037-0.082 0.059l-0.046 0.032-4.695 5.143-4.325-4.251 2.834-2.821c0.098-0.097 0.158-0.231 0.158-0.379 0-0.295-0.239-0.535-0.535-0.535-0.002 0-0.005 0-0.007 0h0l-2.217 0.014 0.027-1.609 3.104 0.027c1.264 1.298 3.028 2.103 4.98 2.103 0.001 0 0.002 0 0.003 0h-0c0.434 0 0.864-0.046 1.28-0.123 0.037 0.032 0.078 0.064 0.128 0.087l2.409 0.96 0.151 0.759 0.183 0.882-3.008-0.425zM20.023 18.574l-0.311-1.559 1.445-1.079 0.379 0.503 0.567 0.75-2.080 1.385zM23.776 15.739l-0.837 0.786-0.933-1.234 0.832-0.64c0.121-0.097 0.277-0.155 0.446-0.155 0.236 0 0.446 0.114 0.577 0.29l0.001 0.002c0.089 0.118 0.142 0.266 0.142 0.427 0 0.207-0.088 0.393-0.229 0.523l-0 0z"></path>
<path fill="#212121" style="fill: var(--color1, #212121)" d="M13.6 18.542l-2.139-2.13c-0.097-0.096-0.23-0.156-0.377-0.156s-0.28 0.059-0.377 0.156l-2.144 2.13c-0.098 0.097-0.158 0.231-0.158 0.379s0.060 0.283 0.158 0.379l0 0 2.144 2.135c0.097 0.096 0.23 0.156 0.377 0.156s0.28-0.059 0.377-0.156l-0 0 2.139-2.135c0.098-0.097 0.158-0.231 0.158-0.379s-0.060-0.283-0.158-0.379l-0-0zM11.086 20.302l-1.394-1.376 1.385-1.381 1.39 1.381-1.39 1.381zM17.166 5.070l-0.261 1.038c0.073 0.018 1.737 0.453 1.737 2.149h1.070c0-2.016-1.669-2.967-2.546-3.186zM19.712 9.321h-1.070v1.065h1.070v-1.061z"></path>
</symbol>
<symbol id="icon-client-1" viewBox="0 0 57 32">
<path d="M20.267 3.733l3.733 3.536h-6.933v17.157h18.133v-6.56l3.733 3.531v-17.664h-18.667zM35.040 17.456l-10.608-10.032h10.608v10.027zM31.744 21.925h-11.808v-11.547h0.832v10.763h10.976v0.784zM22.725 26.72l-0.437 0.901-0.437-0.901h-0.363l0.64 1.2v0.693h0.325v-0.693l0.64-1.2h-0.368zM23.275 28.619l0.155-0.443h0.731l0.16 0.437h0.341l-0.72-1.893h-0.293l-0.715 1.899h0.341zM23.792 27.125l0.277 0.784h-0.549l0.272-0.789zM25.531 27.861c-0.044 0.066-0.070 0.147-0.070 0.233 0 0.004 0 0.008 0 0.013v-0.001c0 0.16 0.053 0.288 0.165 0.389 0.112 0.096 0.267 0.144 0.453 0.144s0.347-0.053 0.48-0.149l0.107 0.128h0.373l-0.283-0.331c0.107-0.149 0.16-0.341 0.16-0.576h-0.267c0 0.128-0.032 0.245-0.085 0.347l-0.363-0.427 0.128-0.096c0.079-0.053 0.144-0.119 0.196-0.195l0.002-0.003c0.037-0.061 0.059-0.135 0.059-0.215 0-0.001 0-0.003-0-0.004v0c0-0.003 0-0.007 0-0.011 0-0.117-0.052-0.222-0.133-0.293l-0-0c-0.085-0.076-0.197-0.123-0.321-0.123-0.005 0-0.011 0-0.016 0l0.001-0c-0.007-0-0.016-0.001-0.025-0.001-0.133 0-0.253 0.051-0.344 0.134l0-0c-0.083 0.084-0.134 0.199-0.134 0.326 0 0.009 0 0.018 0.001 0.027l-0-0.001c0 0.053 0.016 0.123 0.043 0.187 0.032 0.064 0.080 0.144 0.155 0.235-0.11 0.073-0.204 0.162-0.281 0.264l-0.002 0.003zM26.384 28.283c-0.081 0.066-0.185 0.106-0.299 0.107h-0c-0.005 0-0.010 0-0.016 0-0.080 0-0.153-0.031-0.208-0.081l0 0c-0.053-0.051-0.086-0.123-0.086-0.203 0-0.004 0-0.008 0-0.011l-0 0.001c0-0.107 0.053-0.192 0.16-0.272l0.037-0.032 0.411 0.491zM26.048 27.445c-0.091-0.112-0.133-0.203-0.133-0.277 0-0.064 0.016-0.117 0.053-0.16 0.034-0.036 0.082-0.059 0.136-0.059 0.003 0 0.006 0 0.008 0h-0c0.003-0 0.006-0 0.009-0 0.052 0 0.1 0.020 0.135 0.054l-0-0c0.037 0.032 0.053 0.075 0.053 0.123 0 0.003 0 0.006 0 0.010 0 0.070-0.031 0.133-0.080 0.176l-0 0-0.037 0.032-0.144 0.101zM29.131 28.475c0.133-0.117 0.208-0.272 0.224-0.48h-0.325c-0.016 0.139-0.059 0.235-0.123 0.293-0.069 0.059-0.16 0.091-0.293 0.091-0.005 0-0.011 0-0.016 0-0.126 0-0.237-0.063-0.303-0.159l-0.001-0.001c-0.075-0.107-0.112-0.267-0.112-0.475v-0.165c0-0.203 0.043-0.357 0.117-0.459 0.075-0.107 0.187-0.16 0.331-0.16 0.123 0 0.213 0.032 0.277 0.091 0.064 0.064 0.107 0.16 0.123 0.293h0.325c-0.010-0.189-0.092-0.358-0.218-0.48l-0-0c-0.126-0.107-0.291-0.172-0.47-0.172-0.013 0-0.025 0-0.038 0.001l0.002-0c-0.16 0-0.293 0.037-0.411 0.107-0.12 0.078-0.213 0.187-0.27 0.315l-0.002 0.005c-0.061 0.133-0.096 0.288-0.096 0.452 0 0.008 0 0.016 0 0.024l-0-0.001v0.176c0 0.176 0.032 0.325 0.096 0.459s0.155 0.235 0.267 0.304c0.117 0.075 0.251 0.107 0.4 0.107 0.213 0 0.389-0.053 0.517-0.165zM31.067 28.208c0.064-0.144 0.096-0.304 0.096-0.491v-0.107c0-0.006 0-0.013 0-0.020 0-0.166-0.035-0.324-0.099-0.467l0.003 0.007c-0.060-0.134-0.156-0.243-0.274-0.318l-0.003-0.002c-0.115-0.074-0.255-0.117-0.405-0.117-0.002 0-0.004 0-0.006 0h0c-0.155 0-0.293 0.037-0.411 0.112s-0.213 0.187-0.277 0.325c-0.061 0.136-0.096 0.295-0.096 0.462 0 0.010 0 0.020 0 0.030l-0-0.001v0.107c0 0.181 0.032 0.341 0.096 0.48s0.16 0.245 0.277 0.32c0.123 0.075 0.261 0.112 0.411 0.112 0.16 0 0.293-0.037 0.416-0.107 0.117-0.080 0.213-0.187 0.272-0.325zM30.715 27.136c0.080 0.107 0.123 0.272 0.123 0.48v0.101c0 0.213-0.043 0.373-0.123 0.485-0.070 0.104-0.187 0.171-0.32 0.171-0.006 0-0.012-0-0.017-0l0.001 0c-0.003 0-0.007 0-0.011 0-0.134 0-0.253-0.067-0.324-0.17l-0.001-0.001c-0.078-0.123-0.124-0.273-0.124-0.434 0-0.018 0.001-0.036 0.002-0.053l-0 0.002v-0.107c0-0.208 0.043-0.363 0.123-0.48 0.072-0.098 0.186-0.161 0.315-0.161 0.007 0 0.015 0 0.022 0.001l-0.001-0c0.144 0 0.256 0.053 0.336 0.16z"></path>
</symbol>
<symbol id="icon-client-2" viewBox="0 0 57 32">
<path d="M26.725 3.163h-0.069l-0.336-0.011h-0.245l-0.64 0.016c-0.008-0.001-0.017-0.001-0.027-0.001s-0.019 0-0.028 0.001l0.001-0c-2.058 0.12-3.968 0.634-5.695 1.469l0.090-0.039-0.229 0.112v11.808l0.539-0.181c0.475-0.16 0.976-0.309 1.499-0.443 1.291-0.346 2.776-0.555 4.307-0.576l0.013-0v1.552c-0.192 0-0.384 0.005-0.571 0.016h-0.043c-1.213 0.069-2.349 0.252-3.443 0.539l0.12-0.027c-1.503 0.382-2.82 0.91-4.044 1.585l0.087-0.044v-15.152c1.196-0.71 2.58-1.288 4.045-1.662l0.11-0.024c1.172-0.314 2.518-0.497 3.907-0.501h0.232c0.973 0.003 1.916 0.13 2.814 0.364l-0.078-0.017v1.531c-0.544-0.134-1.188-0.236-1.848-0.286l-0.040-0.002h-0.037c-0.133-0.011-0.267-0.027-0.389-0.027zM29.413 4.725c0.341 0.027 0.693 0.037 1.045 0.037 1.464-0.006 2.88-0.198 4.229-0.554l-0.117 0.026c1.503-0.383 2.82-0.911 4.045-1.586l-0.087 0.044v14.875c-1.196 0.711-2.579 1.29-4.044 1.667l-0.11 0.024c-1.172 0.313-2.518 0.496-3.906 0.501h-0.003c-0.027 0-0.059 0-0.091 0-1.023 0-2.015-0.128-2.963-0.37l0.083 0.018v-14.971c0.556 0.138 1.212 0.24 1.883 0.286l0.037 0.002zM36.987 4.843l-0.544 0.181c-0.496 0.165-0.997 0.32-1.493 0.448-1.344 0.36-2.889 0.57-4.482 0.576h-0.004c-0.352 0-0.677-0.011-0.992-0.032l-0.427-0.027v12.144l0.368 0.032c0.341 0.027 0.693 0.043 1.051 0.043 1.257-0.006 2.473-0.173 3.631-0.481l-0.1 0.023c1.058-0.269 1.975-0.608 2.845-1.031l-0.088 0.039 0.235-0.107v-11.808z"></path>
<path d="M19.061 24.112c-0.145-0.148-0.348-0.241-0.572-0.241-0.011 0-0.022 0-0.032 0.001l0.002-0c-0.004-0-0.010-0-0.015-0-0.12 0-0.234 0.024-0.338 0.066l0.006-0.002c-0.205 0.082-0.363 0.242-0.441 0.443l-0.002 0.005c-0.043 0.107-0.064 0.219-0.064 0.336v2.027c0 0.139 0.027 0.283 0.080 0.411 0.087 0.205 0.262 0.358 0.475 0.415l0.005 0.001c0.101 0.027 0.203 0.043 0.304 0.043 0.112 0 0.224-0.021 0.325-0.069 0.304-0.135 0.512-0.434 0.512-0.782 0-0.001 0-0.001 0-0.002v0-0.224h-0.533v0.181c0 0.006 0 0.012 0 0.019 0 0.056-0.010 0.11-0.028 0.16l0.001-0.003c-0.017 0.046-0.042 0.085-0.075 0.117v0c-0.062 0.047-0.14 0.075-0.224 0.075v0c-0.009 0.001-0.020 0.002-0.031 0.002-0.088 0-0.166-0.042-0.214-0.108l-0-0.001c-0.047-0.073-0.075-0.162-0.075-0.257 0-0.005 0-0.010 0-0.015l-0 0.001v-1.888c0-0.107 0.021-0.208 0.069-0.299 0.048-0.075 0.131-0.124 0.226-0.124 0.011 0 0.021 0.001 0.032 0.002l-0.001-0c0.003-0 0.006-0 0.009-0 0.092 0 0.173 0.044 0.225 0.111l0 0.001c0.057 0.072 0.091 0.163 0.091 0.263 0 0.001 0 0.003-0 0.004v-0 0.181h0.523v-0.208c0-0.002 0-0.005 0-0.008 0-0.124-0.023-0.242-0.066-0.35l0.002 0.006c-0.041-0.112-0.101-0.208-0.176-0.288l0 0zM22.203 24.091c-0.161-0.138-0.372-0.223-0.602-0.224h-0c-0.107 0-0.213 0.021-0.32 0.053-0.217 0.081-0.388 0.243-0.478 0.448l-0.002 0.005c-0.053 0.123-0.080 0.256-0.075 0.389v1.941c-0.005 0.139 0.021 0.272 0.075 0.4 0.048 0.107 0.117 0.197 0.203 0.267 0.085 0.080 0.176 0.139 0.283 0.176 0.101 0.037 0.208 0.053 0.315 0.053 0.001 0 0.003 0 0.004 0 0.23 0 0.439-0.085 0.6-0.225l-0.001 0.001c0.171-0.153 0.279-0.375 0.279-0.622 0-0.018-0.001-0.035-0.002-0.053l0 0.002v-1.941c0-0.003 0-0.006 0-0.009 0-0.138-0.029-0.268-0.082-0.386l0.002 0.006c-0.049-0.11-0.115-0.204-0.197-0.282l-0-0zM21.957 26.704c0.001 0.009 0.001 0.019 0.001 0.029 0 0.1-0.041 0.189-0.108 0.253l-0 0c-0.067 0.057-0.155 0.091-0.251 0.091s-0.183-0.035-0.251-0.092l0.001 0c-0.067-0.063-0.108-0.153-0.108-0.252 0-0.011 0-0.022 0.002-0.033l-0 0.001v-1.941c-0.001-0.008-0.001-0.017-0.001-0.026 0-0.099 0.041-0.188 0.108-0.251l0-0c0.067-0.057 0.155-0.091 0.251-0.091s0.183 0.035 0.251 0.092l-0.001-0c0.066 0.063 0.108 0.152 0.108 0.251 0 0.009-0 0.018-0.001 0.027l0-0.001v1.941zM26.331 27.573v-3.675h-0.512l-0.667 1.947h-0.011l-0.672-1.947h-0.501v3.675h0.523v-2.24h0.011l0.512 1.584h0.267l0.512-1.579h0.011v2.235h0.528zM29.312 24.16c-0.080-0.096-0.187-0.16-0.299-0.203-0.109-0.037-0.234-0.059-0.365-0.059-0.005 0-0.010 0-0.015 0h-0.778v3.675h0.523v-1.44h0.267c0.165 0.011 0.325-0.021 0.475-0.096 0.12-0.068 0.218-0.164 0.286-0.279l0.002-0.004c0.059-0.096 0.101-0.203 0.117-0.32 0.020-0.123 0.032-0.264 0.032-0.408 0-0.003 0-0.006 0-0.009v0c0-0.176-0.016-0.352-0.053-0.523-0.036-0.134-0.103-0.249-0.192-0.342l0 0zM29.045 25.28c-0.005 0.069-0.024 0.133-0.055 0.189l0.001-0.002c-0.030 0.056-0.076 0.1-0.132 0.127l-0.002 0.001c-0.068 0.034-0.148 0.054-0.233 0.054-0.006 0-0.012-0-0.018-0l0.001 0h-0.235v-1.253h0.267c0.007-0 0.016-0.001 0.025-0.001 0.078 0 0.152 0.018 0.218 0.050l-0.003-0.001c0.054 0.031 0.096 0.077 0.122 0.132l0.001 0.002c0.026 0.060 0.042 0.129 0.043 0.202v0.502zM31.792 23.899h-0.427l-0.816 3.675h0.528l0.149-0.789h0.715l0.16 0.789h0.517l-0.827-3.675zM31.312 26.283l0.251-1.333h0.011l0.256 1.333h-0.523zM35.173 26.112h-0.011l-0.789-2.213h-0.501v3.675h0.523v-2.208h0.011l0.795 2.208h0.491v-3.68h-0.523v2.213zM38.373 23.899l-0.427 1.461h-0.005l-0.427-1.461h-0.549l0.72 2.123v1.547h0.523v-1.547l0.72-2.123h-0.555zM17.6 28.613h0.251v0.704h0.171v-0.709h0.251v-0.144h-0.672v0.149zM19.723 28.464l-0.331 0.853h0.181l0.069-0.192h0.341l0.069 0.192h0.187l-0.336-0.853h-0.181zM19.696 28.981l0.112-0.32 0.117 0.32h-0.229zM21.819 29.003h0.197v0.107c-0.055 0.046-0.125 0.073-0.202 0.075h-0c-0.004 0-0.009 0-0.014 0-0.067 0-0.128-0.031-0.167-0.080l-0-0c-0.040-0.057-0.065-0.128-0.065-0.205 0-0.007 0-0.013 0.001-0.020l-0 0.001c0-0.187 0.080-0.283 0.245-0.283 0.005-0 0.011-0.001 0.017-0.001 0.083 0 0.154 0.056 0.175 0.133l0 0.001 0.171-0.032c-0.037-0.165-0.16-0.251-0.363-0.251-0.005-0-0.010-0-0.016-0-0.109 0-0.208 0.041-0.283 0.107l0-0c-0.077 0.076-0.124 0.18-0.124 0.296 0 0.012 0 0.024 0.002 0.036l-0-0.002c-0 0.007-0.001 0.015-0.001 0.023 0 0.113 0.041 0.217 0.108 0.297l-0.001-0.001c0.076 0.079 0.183 0.129 0.301 0.129 0.009 0 0.017-0 0.026-0.001l-0.001 0c0.004 0 0.008 0 0.012 0 0.136 0 0.259-0.053 0.351-0.139l-0 0v-0.336h-0.373v0.144zM23.957 28.469h-0.171v0.853h0.597v-0.149h-0.427v-0.709zM25.771 28.469h-0.176v0.853h0.176v-0.853zM27.541 29.035l-0.352-0.571h-0.165v0.853h0.16v-0.555l0.341 0.555h0.171v-0.853h-0.16v0.571zM29.141 28.944h0.427v-0.149h-0.427v-0.181h0.453v-0.149h-0.629v0.853h0.651v-0.144h-0.48v-0.229zM33.013 28.8h-0.336v-0.336h-0.171v0.853h0.171v-0.373h0.336v0.373h0.171v-0.853h-0.171v0.336zM34.624 28.944h0.427v-0.149h-0.427v-0.181h0.459v-0.149h-0.629v0.853h0.645v-0.144h-0.475v-0.229zM36.811 28.944c0.144-0.027 0.219-0.107 0.219-0.24 0.001-0.007 0.001-0.016 0.001-0.024 0-0.066-0.032-0.125-0.081-0.162l-0.001-0c-0.064-0.034-0.141-0.054-0.222-0.054-0.010 0-0.020 0-0.030 0.001l0.001-0h-0.363v0.853h0.171v-0.357h0.037c0.003-0 0.006-0 0.010-0 0.035 0 0.069 0.008 0.098 0.022l-0.001-0.001c0.021 0.016 0.043 0.037 0.053 0.064l0.192 0.267h0.203l-0.107-0.16c-0.045-0.087-0.108-0.158-0.185-0.212l-0.002-0.001zM36.635 28.827h-0.128v-0.213h0.139c0.013-0.001 0.029-0.002 0.044-0.002 0.045 0 0.089 0.007 0.13 0.019l-0.003-0.001c0.025 0.021 0.040 0.051 0.040 0.086 0 0.037-0.018 0.069-0.045 0.090l-0 0c-0.043 0.014-0.093 0.022-0.145 0.022-0.011 0-0.021-0-0.032-0.001l0.001 0zM38.453 28.944h0.427v-0.149h-0.427v-0.181h0.459v-0.149h-0.629v0.853h0.651v-0.144h-0.475v-0.229z"></path>
</symbol>
<symbol id="icon-client-3" viewBox="0 0 57 32">
<path d="M19.413 26.187l0.027 0.005c0.008 0.002 0.015 0.006 0.021 0.011l-0-0 0.117 0.112c-0.091 0.091-0.203 0.16-0.325 0.213-0.128 0.048-0.276 0.075-0.431 0.075-0.012 0-0.023-0-0.035-0l0.002 0c-0.009 0-0.019 0-0.030 0-0.146 0-0.286-0.026-0.416-0.072l0.009 0.003c-0.128-0.047-0.238-0.116-0.331-0.203l0 0c-0.090-0.084-0.162-0.185-0.211-0.298l-0.002-0.006c-0.047-0.114-0.075-0.246-0.075-0.385 0-0.005 0-0.010 0-0.016v0.001c-0-0.005-0-0.011-0-0.017 0-0.273 0.119-0.518 0.309-0.686l0.001-0.001c0.098-0.086 0.213-0.155 0.339-0.2l0.007-0.002c0.144-0.048 0.299-0.069 0.448-0.069 0.009-0 0.021-0 0.032-0 0.139 0 0.273 0.024 0.398 0.067l-0.009-0.003c0.112 0.043 0.219 0.107 0.309 0.181l-0.096 0.117c-0.007 0.009-0.016 0.016-0.026 0.021l-0 0c-0.010 0.007-0.023 0.011-0.037 0.011-0 0-0 0-0 0h0c-0.016-0.002-0.031-0.008-0.043-0.016l0 0-0.053-0.032-0.069-0.037c-0.067-0.032-0.144-0.056-0.225-0.069l-0.005-0.001c-0.053-0.010-0.114-0.016-0.176-0.016h-0c-0.002-0-0.005-0-0.008-0-0.112 0-0.219 0.020-0.319 0.055l0.007-0.002c-0.099 0.034-0.184 0.085-0.257 0.15l0.001-0.001c-0.069 0.069-0.128 0.149-0.16 0.24-0.040 0.091-0.063 0.197-0.064 0.309v0c-0 0.005-0 0.010-0 0.016 0 0.11 0.022 0.214 0.061 0.31l-0.002-0.005c0.073 0.181 0.219 0.32 0.401 0.383l0.005 0.001c0.096 0.032 0.197 0.053 0.299 0.053l0.176-0.016c0.148-0.014 0.28-0.072 0.385-0.161l-0.001 0.001c0.014-0.012 0.033-0.020 0.053-0.021h0zM22.773 25.627c0 0.006 0 0.014 0 0.022 0 0.135-0.028 0.263-0.077 0.379l0.002-0.006c-0.052 0.12-0.126 0.221-0.218 0.303l-0.001 0.001c-0.097 0.087-0.213 0.156-0.34 0.201l-0.007 0.002c-0.132 0.045-0.284 0.071-0.443 0.071s-0.311-0.026-0.453-0.074l0.010 0.003c-0.132-0.047-0.245-0.116-0.342-0.203l0.001 0.001c-0.092-0.085-0.166-0.188-0.216-0.304l-0.002-0.006c-0.049-0.116-0.078-0.251-0.078-0.392s0.029-0.276 0.081-0.399l-0.003 0.007c0.106-0.241 0.307-0.424 0.554-0.505l0.006-0.002c0.132-0.046 0.284-0.072 0.443-0.072s0.311 0.026 0.452 0.075l-0.010-0.003c0.128 0.048 0.245 0.117 0.347 0.203 0.181 0.166 0.294 0.404 0.294 0.668 0 0.011-0 0.021-0.001 0.032l0-0.002zM22.469 25.627c0-0.006 0-0.013 0-0.020 0-0.106-0.020-0.207-0.055-0.3l0.002 0.006c-0.071-0.181-0.215-0.32-0.395-0.383l-0.005-0.001c-0.096-0.032-0.206-0.051-0.32-0.051s-0.224 0.019-0.327 0.053l0.007-0.002c-0.097 0.033-0.181 0.084-0.251 0.15l0-0c-0.069 0.064-0.123 0.142-0.158 0.23l-0.002 0.004c-0.035 0.094-0.056 0.203-0.056 0.317s0.020 0.223 0.058 0.324l-0.002-0.006c0.071 0.183 0.218 0.323 0.401 0.383l0.005 0.001c0.208 0.064 0.437 0.064 0.64 0 0.096-0.037 0.181-0.085 0.251-0.149 0.069-0.069 0.123-0.149 0.155-0.235 0.037-0.107 0.053-0.213 0.053-0.32zM25.067 25.963l0.032 0.069 0.032-0.075c0.013-0.027 0.025-0.050 0.039-0.072l-0.002 0.003 0.747-1.173 0.037-0.037c0.010-0.002 0.021-0.003 0.032-0.003s0.022 0.001 0.033 0.003l-0.001-0h0.219v1.904h-0.261v-1.461c-0.001-0.010-0.001-0.021-0.001-0.032s0-0.022 0.001-0.034l-0 0.002-0.747 1.189c-0.010 0.018-0.025 0.033-0.042 0.042l-0.001 0c-0.018 0.010-0.040 0.016-0.063 0.016-0 0-0 0-0.001 0h-0.043c-0.001 0-0.001 0-0.002 0-0.023 0-0.044-0.006-0.063-0.016l0.001 0c-0.018-0.010-0.033-0.025-0.042-0.042l-0-0.001-0.773-1.2v1.536h-0.251v-1.909h0.224c0.021 0.001 0.041 0.004 0.060 0.011l-0.001-0c0.016 0.005 0.032 0.016 0.043 0.032l0.757 1.173c0.014 0.021 0.026 0.046 0.036 0.072l0.001 0.003zM27.861 25.867v0.715h-0.288v-1.909h0.651c0.123 0 0.24 0.016 0.363 0.043 0.091 0.027 0.181 0.064 0.256 0.117 0.062 0.049 0.111 0.112 0.143 0.184l0.001 0.003c0.032 0.080 0.053 0.16 0.048 0.245 0 0.003 0 0.007 0 0.011 0 0.174-0.083 0.328-0.212 0.426l-0.001 0.001c-0.069 0.053-0.16 0.101-0.256 0.123-0.102 0.030-0.219 0.048-0.34 0.048-0.002 0-0.005 0-0.007-0h0l-0.352-0.005zM27.861 25.659h0.352c0.080 0 0.155-0.005 0.229-0.027 0.061-0.020 0.115-0.049 0.161-0.086l-0.001 0.001c0.081-0.068 0.133-0.169 0.133-0.283v-0c0.001-0.009 0.001-0.019 0.001-0.029 0-0.047-0.010-0.092-0.029-0.133l0.001 0.002c-0.026-0.051-0.062-0.094-0.106-0.127l-0.001-0.001c-0.097-0.065-0.216-0.103-0.343-0.103-0.016 0-0.032 0.001-0.048 0.002l0.002-0h-0.352v0.784zM31.771 26.581h-0.229c-0.002 0-0.005 0-0.007 0-0.021 0-0.041-0.006-0.057-0.017l0 0c-0.016-0.011-0.028-0.025-0.037-0.042l-0-0.001-0.197-0.464h-0.992l-0.208 0.464c-0.018 0.035-0.054 0.059-0.095 0.059-0.002 0-0.004-0-0.006-0h-0.229l0.875-1.909h0.304l0.88 1.909zM30.331 25.872h0.821l-0.347-0.773c-0.023-0.050-0.044-0.11-0.062-0.172l-0.002-0.009-0.032 0.101-0.032 0.080-0.347 0.773zM33.029 24.683l0.043 0.032 1.275 1.44v-1.483h0.256v1.909h-0.144c-0.001 0-0.003 0-0.004 0-0.020 0-0.038-0.004-0.056-0.011l0.001 0c-0.019-0.008-0.034-0.019-0.048-0.032l0 0-1.269-1.44c0.001 0.010 0.001 0.021 0.001 0.032s-0 0.022-0.001 0.034l0-0.002v1.419h-0.261v-1.909h0.16c0.018 0.001 0.034 0.005 0.049 0.011l-0.001-0zM36.747 25.824v0.757h-0.288v-0.757l-0.805-1.152h0.261c0.002-0 0.005-0 0.007-0 0.021 0 0.041 0.006 0.057 0.017l-0-0 0.037 0.048 0.501 0.741c0.031 0.047 0.061 0.101 0.088 0.158l0.003 0.008 0.037-0.080 0.053-0.085 0.491-0.747c0.011-0.016 0.023-0.030 0.037-0.042l0-0c0.015-0.010 0.034-0.017 0.054-0.017 0.004 0 0.007 0 0.011 0.001l-0-0h0.267l-0.811 1.152zM24.923 21.472l0.384 0.032c1.947-0.747 3.565-1.984 4.754-3.562l0.020-0.027c1.060-1.413 1.697-3.197 1.697-5.129 0-0.053-0-0.106-0.001-0.159l0 0.008-2.165-1.877c0.443 1.989 0.235 4.043-0.592 5.936-0.907 1.983-2.311 3.605-4.054 4.753l-0.042 0.026z"></path>
<path d="M24.149 21.387l0.059 0.005c1.973-1.227 3.483-2.939 4.32-4.923 0.478-1.079 0.756-2.337 0.756-3.66 0-0.898-0.128-1.765-0.367-2.586l0.016 0.065-3.083-2.672c0.96 1.642 1.527 3.616 1.527 5.722 0 0.483-0.030 0.959-0.088 1.427l0.006-0.056c-0.351 2.604-1.485 4.894-3.153 6.679l0.006-0.007zM34.597 14.843c-0.599 2.176-1.882 3.994-3.6 5.256l-0.027 0.019c-0.5 0.38-1.064 0.736-1.658 1.042l-0.065 0.030c1.493-0.379 2.864-1.051 4.005-1.963s2.027-2.043 2.592-3.307l-1.248-1.077z"></path>
<path d="M34.107 14.539l-1.781-1.547c-0.047 1.877-0.666 3.6-1.687 5.013l0.018-0.026c-1.113 1.534-2.58 2.746-4.284 3.529l-0.068 0.028h0.011c0.007 0 0.015 0 0.023 0 0.413 0 0.821-0.021 1.222-0.063l-0.050 0.004c1.692-0.597 3.134-1.537 4.301-2.744l0.003-0.003c1.093-1.13 1.895-2.549 2.281-4.13l0.013-0.062zM24.411 6.485l-2.123-1.845c-1.894 0.624-3.485 1.738-4.674 3.193l-0.014 0.018c-1.089 1.342-1.754 3.066-1.771 4.946l-0 0.004c0.027 2.083 0.84 3.971 2.154 5.386l-0.005-0.005c1.429 1.538 3.31 2.637 5.431 3.087l0.068 0.012c1.84-1.897 3.041-4.423 3.251-7.225l0.002-0.039c0.012-0.192 0.018-0.416 0.018-0.642 0-2.604-0.88-5.003-2.358-6.915l0.019 0.026zM39.008 14.256c-0.005-2.315-1.067-4.533-2.955-6.176-1.885-1.596-4.344-2.566-7.029-2.566-0.026 0-0.053 0-0.079 0l0.004-0c-0.004 0-0.008 0-0.012 0-1.286 0-2.521 0.215-3.672 0.61l0.079-0.024 12.992 11.28c0.423-0.919 0.67-1.993 0.672-3.125v-0.001z"></path>
</symbol>
<symbol id="icon-client-4" viewBox="0 0 57 32">
<path d="M12.88 11.253c-1.28 0-2.32 0.923-2.32 2.059 0 1.141 1.040 2.059 2.315 2.059 1.28 0 2.32-0.917 2.32-2.059 0-1.136-1.040-2.059-2.315-2.059zM29.973 10.597c-0.005-1.579-0.715-3.093-1.973-4.213-1.248-1.084-2.889-1.744-4.684-1.744-0.016 0-0.033 0-0.049 0h0.003c-1.776 0-3.483 0.629-4.736 1.749-1.191 1.025-1.948 2.526-1.973 4.204l-0 0.004v8.704s13.413-1.328 13.413-8.704zM5.867 22.16c0 1.099 0.496 2.149 1.371 2.928 0.87 0.756 2.014 1.216 3.265 1.216 0.009 0 0.018-0 0.027-0h-0.001c1.237 0 2.421-0.437 3.296-1.216 0.827-0.714 1.353-1.758 1.371-2.925l0-0.003v-6.053s-9.328 0.923-9.328 6.053zM10.528 23.243c-0.24 0-0.48-0.064-0.677-0.181-0.195-0.114-0.348-0.28-0.445-0.479l-0.003-0.007c-0.059-0.122-0.093-0.264-0.093-0.415 0-0.076 0.009-0.15 0.025-0.221l-0.001 0.007c0.048-0.213 0.16-0.4 0.336-0.555 0.171-0.149 0.384-0.256 0.624-0.299 0.070-0.013 0.15-0.020 0.233-0.020 0.169 0 0.331 0.031 0.481 0.087l-0.009-0.003c0.224 0.080 0.416 0.219 0.549 0.4s0.203 0.389 0.203 0.603c0 0.144-0.027 0.283-0.091 0.416-0.067 0.138-0.156 0.255-0.265 0.351l-0.001 0.001c-0.107 0.107-0.245 0.181-0.395 0.24-0.136 0.051-0.294 0.080-0.459 0.080-0.004 0-0.007 0-0.011-0h0.001zM19.957 22.645h-0.901v0.933h-0.469v-2.277h1.483v0.379h-1.013v0.587h0.901v0.379zM22.208 22.491c0 0.224-0.037 0.421-0.117 0.587-0.080 0.171-0.192 0.299-0.341 0.395-0.139 0.087-0.308 0.139-0.49 0.139-0.006 0-0.012-0-0.018-0h0.001c-0.187 0-0.357-0.048-0.507-0.139-0.149-0.095-0.266-0.227-0.339-0.384l-0.002-0.006c-0.078-0.164-0.123-0.357-0.123-0.56 0-0.007 0-0.015 0-0.022v0.001-0.101c0-0.229 0.037-0.427 0.117-0.592 0.143-0.317 0.456-0.534 0.82-0.534 0.012 0 0.024 0 0.035 0.001l-0.002-0c0.187 0 0.357 0.048 0.501 0.139 0.149 0.091 0.267 0.224 0.341 0.395 0.085 0.165 0.123 0.363 0.123 0.587v0.101zM21.733 22.384c0-0.235-0.043-0.416-0.128-0.539-0.076-0.113-0.203-0.187-0.347-0.187-0.005 0-0.011 0-0.016 0l0.001-0c-0.007-0-0.016-0.001-0.024-0.001-0.142 0-0.268 0.072-0.343 0.181l-0.001 0.001c-0.085 0.123-0.128 0.304-0.128 0.539v0.112c0 0.235 0.043 0.411 0.128 0.539s0.208 0.192 0.373 0.192c0.004 0 0.009 0 0.014 0 0.142 0 0.268-0.071 0.343-0.18l0.001-0.001c0.085-0.123 0.128-0.304 0.128-0.544v-0.107zM23.728 22.981c0-0.004 0-0.009 0-0.014 0-0.076-0.035-0.144-0.091-0.188l-0-0c-0.098-0.064-0.212-0.115-0.333-0.147l-0.008-0.002c-0.149-0.048-0.276-0.102-0.397-0.166l0.013 0.006c-0.256-0.139-0.389-0.325-0.389-0.565 0-0.123 0.037-0.229 0.107-0.325s0.165-0.171 0.299-0.229c0.125-0.051 0.27-0.081 0.422-0.081 0.162 0 0.316 0.034 0.455 0.095l-0.007-0.003c0.128 0.059 0.229 0.139 0.299 0.251 0.069 0.107 0.107 0.229 0.107 0.363h-0.475c0-0.107-0.032-0.187-0.096-0.24-0.069-0.057-0.157-0.091-0.254-0.091-0.008 0-0.016 0-0.024 0.001l0.001-0c-0.007-0-0.016-0.001-0.025-0.001-0.091 0-0.174 0.028-0.244 0.076l0.001-0.001c-0.058 0.042-0.096 0.11-0.096 0.187 0 0.002 0 0.004 0 0.006v-0c0 0.075 0.037 0.133 0.112 0.187 0.075 0.048 0.187 0.096 0.331 0.139 0.267 0.080 0.459 0.181 0.587 0.299 0.117 0.117 0.176 0.267 0.176 0.443 0 0.197-0.069 0.352-0.219 0.464s-0.352 0.171-0.603 0.171c-0.176 0-0.336-0.032-0.48-0.096-0.136-0.058-0.248-0.15-0.329-0.264l-0.002-0.002c-0.067-0.103-0.107-0.23-0.107-0.366 0-0.008 0-0.017 0-0.025l-0 0.001h0.464c0 0.251 0.149 0.379 0.453 0.379 0.107 0 0.197-0.021 0.261-0.069 0.055-0.041 0.091-0.107 0.091-0.18 0-0.002-0-0.005-0-0.007v0zM26.235 21.68h-0.699v1.899h-0.469v-1.899h-0.693v-0.373h1.851v0.373zM27.867 22.587h-0.896v0.613h1.056v0.373h-1.525v-2.272h1.52v0.379h-1.051v0.544h0.896v0.368zM29.147 22.747h-0.373v0.832h-0.475v-2.277h0.848c0.267 0 0.475 0.059 0.619 0.181 0.149 0.117 0.219 0.288 0.219 0.507 0 0.155-0.032 0.283-0.101 0.389-0.075 0.109-0.179 0.193-0.299 0.244l-0.005 0.002 0.491 0.928v0.027h-0.501l-0.427-0.837zM28.773 22.363h0.373c0.117 0 0.213-0.027 0.272-0.085 0.060-0.058 0.097-0.139 0.097-0.229 0-0.008-0-0.015-0.001-0.022l0 0.001c0-0.107-0.027-0.192-0.091-0.251-0.059-0.064-0.155-0.096-0.277-0.096h-0.373v0.683zM31.611 22.773v0.8h-0.469v-2.272h0.885c0.171 0 0.32 0.032 0.453 0.096 0.128 0.059 0.229 0.149 0.299 0.267 0.069 0.112 0.107 0.245 0.107 0.389 0 0.224-0.080 0.4-0.229 0.533-0.158 0.118-0.357 0.189-0.572 0.189-0.024 0-0.048-0.001-0.071-0.003l0.003 0h-0.405zM31.611 22.4h0.416c0.123 0 0.219-0.032 0.283-0.091 0.069-0.059 0.101-0.144 0.101-0.251 0-0.003 0-0.007 0-0.011 0-0.099-0.039-0.189-0.102-0.256l0 0c-0.067-0.066-0.16-0.107-0.261-0.107-0.002 0-0.004 0-0.006 0h-0.432v0.709zM34.576 22.592h-0.901v0.608h1.056v0.373h-1.525v-2.272h1.525v0.379h-1.056v0.544h0.901v0.368zM36.752 21.685h-0.699v1.893h-0.469v-1.899h-0.688v-0.373h1.856v0.373zM38.389 22.592h-0.901v0.608h1.056v0.373h-1.525v-2.272h1.52v0.379h-1.045v0.544h0.901v0.368zM39.659 22.741h-0.373v0.837h-0.469v-2.277h0.848c0.267 0 0.48 0.059 0.624 0.181 0.144 0.117 0.213 0.288 0.213 0.507 0 0.155-0.032 0.283-0.096 0.389-0.077 0.109-0.182 0.194-0.305 0.244l-0.005 0.002 0.496 0.928v0.027h-0.507l-0.427-0.837zM39.285 22.368h0.379c0.117 0 0.213-0.032 0.272-0.091 0.063-0.059 0.102-0.142 0.102-0.234 0-0.006-0-0.012-0-0.017l0 0.001c0-0.107-0.032-0.192-0.096-0.251-0.053-0.064-0.149-0.096-0.277-0.096h-0.373v0.683zM42.043 22.981c0-0.003 0-0.007 0-0.011 0-0.078-0.038-0.148-0.096-0.192l-0.001-0c-0.097-0.063-0.208-0.114-0.328-0.147l-0.008-0.002c-0.149-0.048-0.276-0.102-0.397-0.166l0.013 0.006c-0.261-0.139-0.389-0.325-0.389-0.565 0-0.123 0.037-0.229 0.107-0.325 0.064-0.096 0.165-0.171 0.293-0.229 0.126-0.052 0.272-0.082 0.425-0.082 0.163 0 0.317 0.034 0.457 0.096l-0.007-0.003c0.128 0.059 0.224 0.139 0.293 0.251 0.069 0.107 0.107 0.229 0.107 0.363h-0.469c0-0.107-0.032-0.187-0.096-0.24-0.069-0.057-0.157-0.091-0.254-0.091-0.008 0-0.016 0-0.024 0.001l0.001-0c-0.007-0-0.016-0.001-0.025-0.001-0.091 0-0.175 0.028-0.244 0.076l0.001-0.001c-0.058 0.042-0.096 0.11-0.096 0.187 0 0.002 0 0.004 0 0.006v-0c0 0.075 0.037 0.133 0.107 0.187 0.080 0.048 0.187 0.096 0.331 0.139 0.267 0.080 0.464 0.181 0.587 0.299s0.181 0.267 0.181 0.443c0 0.197-0.075 0.352-0.224 0.464s-0.347 0.171-0.603 0.171c-0.171 0-0.331-0.032-0.48-0.096-0.134-0.059-0.244-0.15-0.324-0.264l-0.002-0.002c-0.070-0.105-0.112-0.234-0.112-0.373 0-0.006 0-0.011 0-0.017l-0 0.001h0.469c0 0.251 0.149 0.379 0.448 0.379 0.112 0 0.203-0.021 0.267-0.069 0.055-0.041 0.091-0.107 0.091-0.18 0-0.002-0-0.005-0-0.007v0z"></path>
</symbol>
<symbol id="icon-client-5" viewBox="0 0 57 32">
<path d="M14.272 23.856c0.128 0.149 0.197 0.336 0.192 0.523 0.001 0.013 0.001 0.027 0.001 0.042 0 0.116-0.026 0.226-0.072 0.325l0.002-0.005c-0.055 0.119-0.132 0.219-0.228 0.298l-0.001 0.001c-0.221 0.152-0.495 0.243-0.79 0.243-0.034 0-0.067-0.001-0.1-0.004l0.004 0h-1.547v-3.307h1.515c0.025-0.002 0.054-0.003 0.083-0.003 0.283 0 0.545 0.085 0.765 0.23l-0.005-0.003c0.096 0.075 0.176 0.171 0.224 0.277 0.053 0.107 0.075 0.224 0.069 0.341 0.011 0.181-0.053 0.357-0.176 0.501-0.117 0.133-0.277 0.224-0.459 0.261 0.203 0.032 0.389 0.133 0.523 0.283zM12.459 23.36h0.64c0.149 0.011 0.299-0.027 0.416-0.107 0.046-0.040 0.082-0.090 0.106-0.147l0.001-0.003c0.021-0.044 0.033-0.096 0.033-0.151 0-0.009-0-0.018-0.001-0.026l0 0.001c0.001-0.010 0.002-0.022 0.002-0.034 0-0.051-0.010-0.1-0.029-0.145l0.001 0.002c-0.025-0.057-0.062-0.105-0.106-0.144l-0.001-0c-0.105-0.072-0.234-0.114-0.373-0.114-0.019 0-0.038 0.001-0.056 0.002l0.002-0h-0.64v0.864zM13.579 24.629c0.050-0.041 0.090-0.093 0.116-0.152l0.001-0.003c0.024-0.048 0.038-0.105 0.038-0.165 0-0.006-0-0.012-0-0.017l0 0.001c0-0.006 0.001-0.013 0.001-0.020 0-0.060-0.014-0.118-0.039-0.169l0.001 0.002c-0.029-0.062-0.071-0.114-0.122-0.154l-0.001-0.001c-0.111-0.074-0.247-0.119-0.394-0.119-0.015 0-0.030 0-0.045 0.001l0.002-0h-0.683v0.907h0.693c0.149 0.011 0.304-0.032 0.427-0.112zM17.371 25.28l-0.843-1.291h-0.32v1.291h-0.725v-3.307h1.376c0.029-0.002 0.064-0.003 0.099-0.003 0.325 0 0.624 0.107 0.865 0.289l-0.004-0.003c0.187 0.181 0.304 0.416 0.32 0.667 0.002 0.022 0.003 0.048 0.003 0.074 0 0.238-0.084 0.456-0.223 0.627l0.001-0.002c-0.171 0.176-0.397 0.297-0.65 0.335l-0.006 0.001 0.896 1.323h-0.789zM16.208 23.536h0.597c0.411 0 0.619-0.16 0.619-0.496 0-0.006 0-0.014 0-0.021 0-0.066-0.014-0.128-0.039-0.184l0.001 0.003c-0.028-0.067-0.068-0.124-0.117-0.17l-0-0c-0.112-0.085-0.254-0.136-0.408-0.136-0.020 0-0.039 0.001-0.058 0.002l0.003-0h-0.603l0.005 1.003zM21.339 24.613h-1.445l-0.256 0.667h-0.763l1.333-3.269h0.821l1.323 3.269h-0.763l-0.251-0.667zM21.147 24.112l-0.533-1.392-0.523 1.392h1.056zM26.304 25.28h-0.72l-1.616-2.245v2.24h-0.715v-3.301h0.72l1.616 2.261v-2.261h0.72v3.307zM30.416 24.491c-0.149 0.245-0.373 0.448-0.651 0.581-0.28 0.132-0.608 0.209-0.955 0.209-0.021 0-0.041-0-0.062-0.001l0.003 0h-1.28v-3.307h1.28c0.014-0 0.032-0 0.049-0 0.35 0 0.681 0.077 0.979 0.215l-0.014-0.006c0.277 0.128 0.501 0.325 0.651 0.576 0.14 0.249 0.222 0.547 0.222 0.864s-0.082 0.615-0.227 0.873l0.005-0.009zM29.595 24.411c0.196-0.205 0.318-0.483 0.32-0.789v-0c0-0.288-0.117-0.571-0.32-0.789-0.224-0.178-0.511-0.285-0.822-0.285-0.030 0-0.059 0.001-0.088 0.003l0.004-0h-0.496v2.139h0.496c0.027 0.002 0.059 0.003 0.090 0.003 0.309 0 0.593-0.106 0.819-0.283l-0.003 0.002zM21.792 3.611s9.296 3.216 9.104 7.867v7.867s-9.296-3.216-9.109-7.867v-7.867zM39.179 17.504c1.686-1.070 3.696-1.784 5.855-1.99l0.054-0.004v-2.464c-2.445 0.858-4.467 2.411-5.884 4.421l-0.025 0.038z"></path>
<path d="M38.123 18.245c1.525-2.695 3.959-4.725 6.878-5.692l0.087-0.025v-7.088s-13.248 4.576-12.965 11.2v11.2s0.587-0.203 1.52-0.587c0-0.357 0-0.72 0.043-1.083 0.33-3.248 1.986-6.054 4.41-7.905l0.027-0.020z"></path>
<path d="M36.864 22.405c0.069-0.773 0.224-1.547 0.464-2.293-1.669 1.773-2.721 4.143-2.805 6.757l-0 0.016c1.105-0.484 1.942-0.896 2.762-1.336l-0.213 0.104c-0.235-1.067-0.304-2.16-0.208-3.248zM37.392 22.448c-0.027 0.275-0.042 0.596-0.042 0.919 0 0.713 0.073 1.409 0.213 2.080l-0.011-0.066c3.621-1.979 7.691-5.045 7.531-8.747v-0.32c-2.658 0.265-5.026 1.334-6.901 2.957l0.016-0.013c-0.415 0.933-0.701 2.015-0.803 3.15l-0.003 0.039z"></path>
</symbol>
<symbol id="icon-client-6" viewBox="0 0 57 32">
<path d="M28.491 14.613c-0.202-0.262-0.323-0.594-0.323-0.955 0-0.035 0.001-0.071 0.003-0.105l-0 0.005v-1.536c0-0.475 0.107-0.832 0.32-1.077s0.587-0.368 1.104-0.363c0.485 0 0.837 0.107 1.040 0.309 0.224 0.267 0.336 0.592 0.309 0.923v0.357h-0.875v-0.363c0-0.123-0.005-0.24-0.027-0.357-0.014-0.086-0.059-0.161-0.122-0.213l-0.001-0c-0.079-0.054-0.178-0.087-0.283-0.087-0.013 0-0.026 0-0.038 0.001l0.002-0c-0.009-0.001-0.021-0.001-0.032-0.001-0.112 0-0.215 0.034-0.301 0.093l0.002-0.001c-0.074 0.058-0.127 0.139-0.149 0.232l-0.001 0.003c-0.021 0.101-0.032 0.218-0.032 0.338 0 0.013 0 0.025 0 0.038l-0-0.002v1.867c-0.016 0.187 0.027 0.363 0.107 0.528 0.047 0.057 0.108 0.102 0.178 0.127l0.003 0.001c0.050 0.019 0.107 0.030 0.167 0.030 0.020 0 0.040-0.001 0.059-0.004l-0.002 0c0.012 0.001 0.027 0.002 0.041 0.002 0.1 0 0.193-0.031 0.27-0.083l-0.002 0.001c0.069-0.056 0.118-0.136 0.133-0.227l0-0.002c0.016-0.123 0.027-0.251 0.027-0.373v-0.384h0.875v0.347c0.002 0.026 0.003 0.057 0.003 0.088 0 0.333-0.116 0.639-0.309 0.88l0.002-0.003c-0.203 0.229-0.544 0.341-1.045 0.341s-0.885-0.123-1.099-0.373zM32.139 14.635c-0.224-0.24-0.336-0.587-0.336-1.051v-1.616c0-0.459 0.112-0.8 0.336-1.040 0.219-0.235 0.587-0.352 1.109-0.352 0.512 0 0.88 0.117 1.099 0.352 0.224 0.235 0.336 0.581 0.336 1.040v1.616c0 0.459-0.112 0.805-0.336 1.045-0.224 0.245-0.587 0.363-1.099 0.363s-0.891-0.123-1.109-0.357zM33.653 14.245c0.080-0.149 0.117-0.315 0.107-0.48v-1.979c0.001-0.014 0.001-0.030 0.001-0.047 0-0.155-0.040-0.3-0.11-0.427l0.002 0.005c-0.046-0.057-0.105-0.101-0.173-0.127l-0.003-0.001c-0.050-0.019-0.108-0.031-0.168-0.031-0.021 0-0.043 0.001-0.063 0.004l0.002-0c-0.019-0.003-0.041-0.004-0.064-0.004-0.061 0-0.12 0.011-0.174 0.032l0.003-0.001c-0.071 0.028-0.13 0.072-0.175 0.127l-0.001 0.001c-0.085 0.144-0.117 0.309-0.107 0.469v1.989c-0.011 0.16 0.021 0.331 0.107 0.48 0.048 0.053 0.107 0.091 0.181 0.117 0.066 0.027 0.143 0.042 0.224 0.042s0.158-0.015 0.228-0.043l-0.004 0.001c0.075-0.027 0.133-0.069 0.187-0.117v-0.011zM35.733 10.624h0.944l0.709 2.987 0.725-2.987h0.917l0.091 4.309h-0.677l-0.075-2.992-0.693 2.992h-0.555l-0.725-3.003-0.064 3.003h-0.688l0.085-4.309zM40.176 10.624h1.467c0.848 0 1.269 0.411 1.269 1.227 0 0.779-0.443 1.173-1.333 1.173h-0.501v1.909h-0.907l0.005-4.309zM41.429 12.464c0.023 0.003 0.050 0.004 0.078 0.004 0.157 0 0.303-0.052 0.42-0.139l-0.002 0.001c0.107-0.144 0.155-0.32 0.133-0.485 0.001-0.016 0.001-0.035 0.001-0.054 0-0.121-0.016-0.238-0.046-0.35l0.002 0.009c-0.015-0.046-0.039-0.085-0.069-0.118l0 0c-0.031-0.035-0.068-0.063-0.11-0.084l-0.002-0.001c-0.106-0.045-0.228-0.071-0.357-0.071-0.017 0-0.034 0-0.051 0.001l0.002-0h-0.352v1.285h0.352zM44.219 10.624h0.971l1.003 4.309h-0.848l-0.197-0.992h-0.869l-0.203 0.992h-0.853l0.997-4.309zM45.051 13.44l-0.341-1.808-0.336 1.813h0.677zM46.997 10.624h0.635l1.211 2.459v-2.453h0.757v4.304h-0.603l-1.221-2.565v2.565h-0.779v-4.309zM51.355 13.291l-1.008-2.661h0.853l0.613 1.707 0.576-1.707h0.832l-0.997 2.667v1.637h-0.864v-1.643zM29.893 16.816v0.224h-0.741v1.755h-0.309v-1.755h-0.747v-0.224h1.797zM32.208 18.789h-0.24c-0.002 0-0.005 0-0.007 0-0.021 0-0.041-0.006-0.057-0.017l0 0c-0.018-0.010-0.033-0.025-0.042-0.042l-0-0.001-0.213-0.469h-1.024l-0.213 0.469c-0.006 0.021-0.018 0.039-0.032 0.053v0c-0.016 0.010-0.036 0.017-0.057 0.017-0.004 0-0.008-0-0.013-0.001l0 0h-0.24l0.907-1.973h0.32l0.912 1.968zM30.709 18.059h0.853l-0.363-0.8c-0.023-0.052-0.044-0.116-0.062-0.182l-0.002-0.010-0.037 0.107-0.032 0.085-0.357 0.8zM33.771 18.597h0.171c0.101-0.005 0.195-0.024 0.284-0.055l-0.007 0.002 0.117-0.053v-0.443h-0.357c-0.002 0-0.004 0-0.007 0-0.018 0-0.034-0.006-0.047-0.016l0 0c-0.004-0.004-0.008-0.010-0.011-0.016l-0-0c-0.003-0.006-0.005-0.012-0.005-0.019 0-0.001 0-0.001 0-0.002v0-0.149h0.704v0.757c-0.111 0.068-0.238 0.123-0.374 0.158l-0.010 0.002c-0.126 0.035-0.27 0.055-0.419 0.055-0.025 0-0.050-0.001-0.075-0.002l0.004 0c-0.003 0-0.007 0-0.011 0-0.16 0-0.315-0.027-0.458-0.078l0.010 0.003c-0.14-0.049-0.26-0.12-0.364-0.209l0.001 0.001c-0.095-0.085-0.172-0.188-0.227-0.304l-0.002-0.006c-0.054-0.118-0.085-0.256-0.085-0.401 0-0.003 0-0.006 0-0.010v0c-0-0.006-0-0.012-0-0.019 0-0.143 0.029-0.28 0.083-0.404l-0.003 0.007c0.053-0.117 0.133-0.224 0.235-0.309 0.107-0.091 0.229-0.16 0.363-0.208 0.141-0.048 0.304-0.076 0.473-0.076 0.093 0 0.184 0.008 0.272 0.024l-0.009-0.001c0.149 0.022 0.284 0.067 0.407 0.131l-0.007-0.003c0.053 0.027 0.107 0.064 0.16 0.101l-0.091 0.123c-0.007 0.011-0.016 0.020-0.026 0.026l-0 0c-0.012 0.007-0.027 0.011-0.043 0.011v0c-0.020-0.001-0.038-0.007-0.054-0.016l0.001 0c-0.039-0.017-0.071-0.033-0.102-0.051l0.006 0.003c-0.033-0.019-0.072-0.037-0.112-0.052l-0.006-0.002c-0.047-0.017-0.105-0.031-0.164-0.042l-0.007-0.001c-0.063-0.010-0.137-0.016-0.211-0.016-0.006 0-0.013 0-0.019 0h0.001c-0.004-0-0.009-0-0.013-0-0.119 0-0.234 0.020-0.341 0.056l0.008-0.002c-0.107 0.037-0.192 0.091-0.267 0.16-0.072 0.066-0.13 0.146-0.169 0.236l-0.002 0.004c-0.039 0.098-0.061 0.212-0.061 0.331s0.023 0.233 0.063 0.337l-0.002-0.006c0.126 0.267 0.393 0.449 0.702 0.449 0.035 0 0.069-0.002 0.102-0.007l-0.004 0zM36.661 18.565h0.987v0.229h-1.291v-1.973h0.309l-0.005 1.744zM38.677 18.795h-0.309v-1.973h0.309v1.973zM39.829 16.827c0.019 0.009 0.035 0.022 0.048 0.037l0 0 1.323 1.488c-0.001-0.010-0.001-0.022-0.001-0.035s0-0.024 0.001-0.036l-0 0.002v-1.472h0.267v1.984h-0.149c-0.004 0-0.008 0.001-0.013 0.001-0.020 0-0.040-0.004-0.058-0.012l0.001 0c-0.019-0.010-0.034-0.022-0.048-0.037l-0-0-1.323-1.493v1.541h-0.261v-1.973h0.213zM43.755 16.816v0.213h-1.099v0.656h0.891v0.213h-0.891v0.672h1.099v0.213h-1.419v-1.968h1.419zM11.285 4.619l13.76 3.371v11.819l-13.76-3.371v-11.819zM10.405 3.605v13.408l15.52 3.808v-13.408l-15.525-3.797z"></path>
<path d="M18.72 27.040l-15.52-3.819v-13.392l15.52 3.808v13.397z"></path>
<path d="M10.661 4.464l13.579 3.333-5.776 4.987-13.579-3.333 5.776-4.987zM10.405 3.611l-7.205 6.219 15.52 3.808 7.2-6.224-15.52-3.803zM19.595 26.277l6.331-5.461-6.331-1.552v7.019z"></path>
</symbol>
<symbol id="icon-clock" viewBox="0 0 32 32">
<path fill="#212121" style="fill: var(--color1, #212121)" d="M31.296 15.301c-0.003-8.451-6.854-15.301-15.305-15.301-8.453 0-15.305 6.852-15.305 15.305 0 0.002 0 0.003 0 0.005v-0c0.003 6.787 4.424 12.542 10.543 14.543l0.108 0.031c0.057 0.018 0.123 0.028 0.191 0.028 0.125 0 0.242-0.034 0.342-0.093l-0.003 0.002c0.137-0.082 0.233-0.206 0.283-0.357l3.863-12.251c1.048-0.009 1.895-0.861 1.895-1.911 0-1.055-0.856-1.911-1.911-1.911-0.3 0-0.584 0.069-0.836 0.192l0.011-0.005-5.102-5.106c-0.112-0.098-0.259-0.158-0.421-0.158-0.353 0-0.64 0.287-0.64 0.64 0 0.16 0.059 0.307 0.156 0.419l-0.001-0.001 5.106 5.111c-0.121 0.241-0.192 0.526-0.192 0.826 0 0.601 0.283 1.136 0.723 1.479l0.004 0.003-3.685 11.675c-5.409-2.034-9.188-7.165-9.188-13.177 0-7.756 6.287-14.043 14.043-14.043s14.043 6.287 14.043 14.043c0 1.742-0.317 3.41-0.897 4.949l0.032-0.097c-1.346 3.581-4.005 6.406-7.377 7.937l-0.088 0.036-0.398-1.874c-0.066-0.289-0.32-0.502-0.625-0.502-0.162 0-0.31 0.060-0.423 0.159l0.001-0.001-3.84 3.429c-0.127 0.117-0.207 0.285-0.207 0.471 0 0.282 0.182 0.521 0.435 0.607l0.005 0.001 4.901 1.563c0.057 0.019 0.123 0.029 0.192 0.029 0.353 0 0.64-0.287 0.64-0.64 0-0.046-0.005-0.091-0.014-0.134l0.001 0.004-0.389-1.838c5.526-2.375 9.326-7.771 9.326-14.055 0-0.012 0-0.024-0-0.036v0.002zM15.991 14.661c0.353 0 0.64 0.287 0.64 0.64s-0.287 0.64-0.64 0.64v0c-0.353 0-0.64-0.287-0.64-0.64s0.287-0.64 0.64-0.64v0zM18.094 29.527l2.181-1.947 0.603 2.839-2.789-0.891z"></path>
<path fill="#2196f3" style="fill: var(--color2, #2196f3)" d="M15.355 3.186v1.275c-0.001 0.016-0.002 0.035-0.002 0.054 0 0.353 0.287 0.64 0.64 0.64s0.64-0.287 0.64-0.64c0-0.019-0.001-0.038-0.002-0.056l0 0.002v-1.28c0-0.353-0.287-0.64-0.64-0.64s-0.64 0.287-0.64 0.64v0zM3.877 14.661c-0.353 0-0.64 0.287-0.64 0.64s0.287 0.64 0.64 0.64h1.275c0.353 0 0.64-0.287 0.64-0.64s-0.287-0.64-0.64-0.64h-1.28zM28.105 15.941c0.353 0 0.64-0.287 0.64-0.64s-0.287-0.64-0.64-0.64h-1.271c-0.353 0-0.64 0.287-0.64 0.64s0.287 0.64 0.64 0.64h1.275z"></path>
</symbol>
<symbol id="icon-diagram" viewBox="0 0 32 32">
<path fill="#2196f3" style="fill: var(--color2, #2196f3)" d="M14.926 14.962h1.065v4.8h-1.065v-4.8zM19.191 17.097h1.065v2.665h-1.065v-2.665zM10.661 18.697h1.065v1.065h-1.065v-1.065zM7.461 18.162h1.070v1.6h-1.065v-1.6z"></path>
<path fill="#212121" style="fill: var(--color1, #212121)" d="M1.6 28.293h25.586c0.884 0 1.6-0.716 1.6-1.6v0-2.135c0-0.884-0.716-1.6-1.6-1.6v0h-0.535v-13.285l3.031-2.871c0.207 0.104 0.45 0.164 0.708 0.164 0.889 0 1.609-0.72 1.609-1.609s-0.72-1.609-1.609-1.609c-0.889 0-1.609 0.72-1.609 1.609 0 0.247 0.056 0.482 0.156 0.691l-0.004-0.010-2.281 2.162v-1.23c0-0.884-0.716-1.6-1.6-1.6v0h-21.321c-0.884 0-1.6 0.716-1.6 1.6v0 15.995h-0.53c-0.884 0-1.6 0.716-1.6 1.6v0 2.13c0 0.884 0.716 1.6 1.6 1.6v0zM30.386 4.837c0.015-0.001 0.032-0.002 0.049-0.002 0.295 0 0.535 0.239 0.535 0.535s-0.239 0.535-0.535 0.535c-0.017 0-0.035-0.001-0.052-0.002l0.002 0c-0.273-0.026-0.485-0.255-0.485-0.533s0.212-0.506 0.483-0.532l0.002-0zM3.2 6.967c0-0.293 0.238-0.53 0.53-0.53h21.326c0.293 0 0.53 0.238 0.53 0.53v2.24l-1.065 1.015v-2.185c0-0.297-0.238-0.535-0.535-0.535h-19.186c-0.293 0-0.53 0.238-0.53 0.535v13.326c0 0.293 0.238 0.53 0.53 0.53h19.191c0.297 0 0.535-0.238 0.535-0.53v-9.673l1.065-1.010v12.283h-22.391v-15.991zM8 13.897c-0.004-0-0.009-0-0.013-0-0.884 0-1.6 0.716-1.6 1.6s0.716 1.6 1.6 1.6c0.434 0 0.827-0.173 1.115-0.453l-0 0 1.856 0.933c0.215 0.105 0.475 0.055 0.635-0.123l3.936-4.434 3.872 2.903c0.21 0.155 0.503 0.137 0.686-0.037l3.369-3.191v8.137h-18.126v-12.27h18.126v2.661l-3.771 3.57-3.904-2.926c-0.088-0.067-0.2-0.107-0.322-0.107-0.159 0-0.302 0.070-0.4 0.18l-0 0.001-3.991 4.494-1.495-0.75c0.014-0.064 0.018-0.128 0.023-0.192 0-0.884-0.716-1.6-1.6-1.6v0zM8.53 15.497c0.001 0.015 0.002 0.032 0.002 0.049 0 0.295-0.239 0.535-0.535 0.535s-0.535-0.239-0.535-0.535c0-0.017 0.001-0.035 0.002-0.052l-0 0.002c0.026-0.273 0.255-0.485 0.533-0.485s0.506 0.212 0.532 0.483l0 0.002zM11.73 24.027h5.321v0.53c0 0.297-0.238 0.535-0.53 0.535h-4.265c-0.295 0-0.535-0.239-0.535-0.535v0-0.53zM1.061 24.558c0-0.293 0.238-0.53 0.535-0.53h9.061v0.53c0 0.884 0.716 1.6 1.6 1.6v0h4.265c0.884 0 1.6-0.716 1.6-1.6v0-0.53h9.061c0.293 0 0.53 0.238 0.53 0.53v2.135c0 0.293-0.238 0.53-0.53 0.53h-25.582c0 0 0 0-0 0-0.294 0-0.532-0.237-0.535-0.53v-2.135z"></path>
</symbol>
<symbol id="icon-envelope" viewBox="0 0 43 32">
<path d="M38.667 0h-34.667c-2.213 0-4 1.787-4 4v24c0 2.213 1.787 4 4 4h34.667c2.213 0 4-1.787 4-4v-24c0-2.213-1.787-4-4-4zM38.667 2.667c0.003-0 0.007-0 0.011-0 0.189 0 0.368 0.039 0.531 0.11l-0.009-0.003-17.867 15.467-17.867-15.467c0.154-0.067 0.334-0.107 0.523-0.107 0.004 0 0.007 0 0.011 0h34.666zM38.667 29.333h-34.667c-0.736 0-1.333-0.597-1.333-1.333v0-22.4l17.787 15.413c0.234 0.206 0.542 0.332 0.88 0.332s0.646-0.126 0.881-0.333l-0.001 0.001 17.787-15.44v22.427c0 0.736-0.597 1.333-1.333 1.333v0z"></path>
</symbol>
<symbol id="icon-facebook" viewBox="0 0 32 32">
<path d="M18.422 11.142h1.331v-2.313c-0.56-0.065-1.21-0.102-1.868-0.102-0.024 0-0.047 0-0.071 0h0.004c-1.92 0-3.229 1.207-3.229 3.418v2.036h-2.109v2.589h2.109v6.502h2.589v-6.502h2.029l0.32-2.589h-2.349v-1.782c0-0.749 0.204-1.258 1.244-1.258z"></path>
</symbol>
<symbol id="icon-instagram" viewBox="0 0 32 32">
<path class="symb" d="M23.258 13.004c-0.011-0.638-0.133-1.243-0.347-1.804l0.012 0.036c-0.194-0.504-0.481-0.934-0.843-1.287l-0.001-0.001c-0.354-0.359-0.784-0.644-1.263-0.828l-0.024-0.008c-0.523-0.204-1.129-0.328-1.761-0.342l-0.006-0c-0.662-0.032-1.437-0.050-2.217-0.050-0.274 0-0.548 0.002-0.821 0.007l0.041-0.001c-1.978 0-2.225 0.007-2.996 0.044-0.778 0.029-1.309 0.16-1.767 0.335-0.504 0.194-0.934 0.481-1.287 0.843l-0.001 0.001c-0.362 0.354-0.649 0.783-0.835 1.263l-0.008 0.024c-0.202 0.524-0.323 1.13-0.334 1.763l-0 0.005c-0.032 0.662-0.050 1.437-0.050 2.217 0 0.274 0.002 0.548 0.007 0.821l-0.001-0.041c0 1.978 0 2.225 0.036 2.996 0.036 0.778 0.16 1.309 0.342 1.767 0.195 0.504 0.482 0.933 0.843 1.287l0.001 0.001c0.364 0.371 0.8 0.655 1.287 0.844 0.458 0.175 0.989 0.298 1.76 0.335 0.778 0.036 1.018 0.044 2.996 0.044s2.225-0.007 3.004-0.044c0.635-0.012 1.238-0.134 1.796-0.347l-0.036 0.012c0.982-0.387 1.744-1.149 2.122-2.106l0.009-0.025c0.175-0.465 0.305-0.989 0.335-1.767 0.036-0.771 0.044-1.018 0.044-2.996s0-2.218-0.036-2.996zM21.949 18.945c-0.029 0.705-0.145 1.091-0.247 1.345-0.251 0.637-0.745 1.131-1.365 1.376l-0.016 0.006c-0.255 0.102-0.647 0.218-1.353 0.247-0.764 0.036-0.996 0.044-2.938 0.044s-2.175 0-2.938-0.044c-0.713-0.029-1.091-0.145-1.345-0.247-0.328-0.123-0.608-0.309-0.836-0.545l-0.001-0.001c-0.235-0.227-0.421-0.504-0.54-0.814l-0.005-0.015c-0.102-0.262-0.218-0.647-0.247-1.353-0.031-0.665-0.049-1.444-0.049-2.227 0-0.25 0.002-0.499 0.005-0.749l-0 0.038c0-1.942 0.007-2.175 0.044-2.938 0.029-0.713 0.145-1.091 0.247-1.353 0.122-0.329 0.308-0.608 0.545-0.836l0.001-0.001c0.229-0.233 0.509-0.417 0.821-0.533l0.016-0.005c0.255-0.102 0.64-0.218 1.345-0.255 0.771-0.029 1.004-0.036 2.938-0.036 1.949 0 2.182 0 2.938 0.036 0.713 0.036 1.091 0.153 1.353 0.255 0.313 0.116 0.604 0.298 0.836 0.538 0.24 0.24 0.422 0.524 0.545 0.836 0.095 0.255 0.218 0.647 0.247 1.353 0.036 0.764 0.044 0.996 0.044 2.938s-0.007 2.167-0.044 2.938z"></path>
<path class="symb" d="M16.029 12.262c-0.002 0-0.005 0-0.007 0-2.065 0-3.738 1.674-3.738 3.738s1.674 3.738 3.738 3.738c2.065 0 3.738-1.674 3.738-3.738v0c0 0 0 0 0 0 0-2.062-1.669-3.734-3.73-3.738h-0zM16.029 18.422c-1.338 0-2.422-1.084-2.422-2.422s1.084-2.422 2.422-2.422v0c1.34 0 2.425 1.086 2.425 2.425s-1.086 2.425-2.425 2.425v0zM20.785 12.116c0 0.482-0.391 0.873-0.873 0.873s-0.873-0.391-0.873-0.873v0c0-0.482 0.391-0.873 0.873-0.873s0.873 0.391 0.873 0.873v0z"></path>
</symbol>
<symbol id="icon-linkedin" viewBox="0 0 32 32">
<path d="M23.273 23.273v-5.338c0-2.604-0.56-4.618-3.615-4.618-0.035-0.001-0.075-0.002-0.116-0.002-1.161 0-2.176 0.626-2.727 1.558l-0.008 0.015h-0.044v-1.324h-2.895v9.709h3.018v-4.807c0-1.265 0.24-2.495 1.804-2.495 1.549 0 1.571 1.447 1.571 2.575v4.727h3.004zM8.96 13.564h3.018v9.709h-3.018v-9.709zM10.473 8.727c-0.964 0-1.745 0.781-1.745 1.745v0c0 0.002 0 0.005 0 0.007 0 0.967 0.78 1.752 1.745 1.76h0.001c0.967 0 1.745-0.8 1.745-1.767 0-0.964-0.781-1.745-1.745-1.745v0z"></path>
</symbol>
<symbol id="icon-smartphone" viewBox="0 0 20 32">
<path d="M17 0h-14c-1.66 0-3 1.34-3 3v26c0 1.66 1.34 3 3 3h14c1.66 0 3-1.34 3-3v-26c0-1.66-1.34-3-3-3zM3 2h14c0.552 0 1 0.448 1 1v0 21h-16v-21c0-0.552 0.448-1 1-1v0zM17 30h-14c-0.552 0-1-0.448-1-1v0-3h16v3c0 0.552-0.448 1-1 1v0z"></path>
<path d="M4.7 27.48c0.177 0.165 0.288 0.399 0.288 0.66s-0.111 0.495-0.288 0.659l-0.001 0.001c-0.186 0.164-0.431 0.264-0.7 0.264s-0.514-0.1-0.701-0.265l0.001 0.001c-0.177-0.165-0.288-0.399-0.288-0.66s0.111-0.495 0.288-0.659l0.001-0.001c0.186-0.164 0.431-0.264 0.7-0.264s0.514 0.1 0.701 0.265l-0.001-0.001z"></path>
</symbol>
<symbol id="icon-twitter" viewBox="0 0 32 32">
<path d="M23.273 11.491c-0.499 0.225-1.079 0.391-1.685 0.469l-0.031 0.003c0.617-0.372 1.081-0.947 1.303-1.63l0.006-0.021c-0.544 0.33-1.178 0.582-1.852 0.721l-0.038 0.007c-0.546-0.585-1.321-0.949-2.182-0.949-1.647 0-2.982 1.335-2.982 2.982 0 0.001 0 0.003 0 0.004v-0c0 0.233 0.029 0.458 0.073 0.676-2.485-0.126-4.671-1.309-6.133-3.105l-0.012-0.015c-0.255 0.431-0.406 0.951-0.407 1.505v0c0 0.001 0 0.001 0 0.002 0 1.029 0.521 1.936 1.313 2.472l0.011 0.007c-0.495-0.013-0.957-0.146-1.36-0.371l0.015 0.008v0.029c0.001 1.438 1.015 2.638 2.366 2.927l0.020 0.004c-0.231 0.065-0.497 0.102-0.772 0.102-0.002 0-0.005 0-0.007 0h0c-0.015 0-0.032 0-0.050 0-0.183 0-0.362-0.019-0.535-0.054l0.017 0.003c0.398 1.19 1.489 2.039 2.782 2.073l0.004 0c-1.007 0.794-2.294 1.273-3.692 1.273-0.001 0-0.001 0-0.002 0h0c-0.005 0-0.011 0-0.016 0-0.246 0-0.487-0.016-0.725-0.047l0.028 0.003c1.284 0.839 2.857 1.338 4.547 1.338 0.010 0 0.020-0 0.029-0h-0.002c5.484 0 8.487-4.545 8.487-8.48l-0.007-0.385c0.589-0.426 1.084-0.94 1.477-1.528l0.014-0.022z"></path>
</symbol>
</defs>
</svg>
