<svg width="44" height="44" fill="none" xmlns="http://www.w3.org/2000/svg"><path d="M44 22a21.93 21.93 0 0 1-6.44 15.56A21.93 21.93 0 0 1 22 44a21.93 21.93 0 0 1-15.56-6.44A21.93 21.93 0 0 1 0 22 21.93 21.93 0 0 1 6.44 6.44 21.93 21.93 0 0 1 22 0a21.93 21.93 0 0 1 15.56 6.44A21.93 21.93 0 0 1 44 22Z" fill="#fff"/><g clip-path="url(#a)"><path d="M32 15.8a8.55 8.55 0 0 1-2.36.65 4.08 4.08 0 0 0 1.8-2.27 8.2 8.2 0 0 1-2.6 1 4.1 4.1 0 0 0-7.1 2.8c0 .32.04.63.1.93a11.6 11.6 0 0 1-8.45-4.29 4.13 4.13 0 0 0-.56 2.07 4.1 4.1 0 0 0 1.82 3.41 4.05 4.05 0 0 1-1.85-.5v.04a4.12 4.12 0 0 0 3.28 4.03 4.09 4.09 0 0 1-1.07.14 3.62 3.62 0 0 1-.78-.07 4.14 4.14 0 0 0 3.83 2.85 8.24 8.24 0 0 1-5.08 1.75 7.67 7.67 0 0 1-.98-.06 11.54 11.54 0 0 0 6.29 1.84c7.54 0 11.67-6.25 11.67-11.66l-.01-.53A8.18 8.18 0 0 0 32 15.8Z" fill="#AFB1B8"/></g><defs><clipPath id="a"><path fill="#fff" transform="translate(12 12)" d="M0 0h20v20H0z"/></clipPath></defs></svg>